<mxfile host="app.diagrams.net" modified="2023-05-30T14:09:41.297Z" agent="Mozilla/5.0 (Windows NT 10.0; Win64; x64) AppleWebKit/537.36 (KHTML, like Gecko) Chrome/108.0.0.0 Safari/537.36" etag="H-2LNN8ztJvyWHcxm18d" version="21.3.5" type="github">
  <diagram name="Page-1" id="2YBvvXClWsGukQMizWep">
    <mxGraphModel dx="1434" dy="764" grid="0" gridSize="10" guides="1" tooltips="1" connect="1" arrows="1" fold="1" page="1" pageScale="1" pageWidth="850" pageHeight="1100" math="0" shadow="0">
      <root>
        <mxCell id="0" />
        <mxCell id="1" parent="0" />
        <mxCell id="t-eY9mWXdGbSjKcz9sFD-1" value="BR" style="shape=cylinder3;whiteSpace=wrap;html=1;boundedLbl=1;backgroundOutline=1;size=15;" vertex="1" parent="1">
          <mxGeometry x="310" y="87" width="80" height="80" as="geometry" />
        </mxCell>
        <mxCell id="t-eY9mWXdGbSjKcz9sFD-2" value="Local_Reference" style="shape=cylinder3;whiteSpace=wrap;html=1;boundedLbl=1;backgroundOutline=1;size=15;" vertex="1" parent="1">
          <mxGeometry x="300" y="187" width="100" height="80" as="geometry" />
        </mxCell>
        <mxCell id="t-eY9mWXdGbSjKcz9sFD-3" value="Rule on&lt;br&gt;BR Toolbox" style="shape=process;whiteSpace=wrap;html=1;backgroundOutline=1;" vertex="1" parent="1">
          <mxGeometry x="570" y="117" width="120" height="150" as="geometry" />
        </mxCell>
        <mxCell id="t-eY9mWXdGbSjKcz9sFD-7" value="" style="verticalLabelPosition=bottom;verticalAlign=top;html=1;shape=mxgraph.basic.frame;dx=10;whiteSpace=wrap;" vertex="1" parent="1">
          <mxGeometry x="215" y="67" width="215" height="220" as="geometry" />
        </mxCell>
        <mxCell id="t-eY9mWXdGbSjKcz9sFD-5" value="Read from OP Appts&amp;nbsp;" style="html=1;verticalAlign=bottom;endArrow=block;edgeStyle=elbowEdgeStyle;elbow=vertical;curved=0;rounded=0;" edge="1" parent="1">
          <mxGeometry x="0.1765" relative="1" as="geometry">
            <mxPoint x="465" y="137" as="sourcePoint" />
            <Array as="points">
              <mxPoint x="390" y="137" />
            </Array>
            <mxPoint x="570" y="137" as="targetPoint" />
            <mxPoint as="offset" />
          </mxGeometry>
        </mxCell>
        <mxCell id="t-eY9mWXdGbSjKcz9sFD-6" value="Copy to Lookup table" style="html=1;verticalAlign=bottom;endArrow=block;edgeStyle=elbowEdgeStyle;elbow=vertical;curved=0;rounded=0;entryX=1;entryY=0.75;entryDx=0;entryDy=0;entryPerimeter=0;" edge="1" parent="1">
          <mxGeometry x="-0.0909" relative="1" as="geometry">
            <mxPoint x="570" y="240" as="sourcePoint" />
            <Array as="points">
              <mxPoint x="495" y="240" />
            </Array>
            <mxPoint x="400" y="240" as="targetPoint" />
            <mxPoint as="offset" />
          </mxGeometry>
        </mxCell>
        <mxCell id="t-eY9mWXdGbSjKcz9sFD-8" value="LS01" style="text;html=1;strokeColor=none;fillColor=none;align=center;verticalAlign=middle;whiteSpace=wrap;rounded=0;fontStyle=1" vertex="1" parent="1">
          <mxGeometry x="240" y="46" width="60" height="30" as="geometry" />
        </mxCell>
        <mxCell id="t-eY9mWXdGbSjKcz9sFD-9" value="" style="verticalLabelPosition=bottom;verticalAlign=top;html=1;shape=mxgraph.basic.frame;dx=10;whiteSpace=wrap;" vertex="1" parent="1">
          <mxGeometry x="225" y="378" width="215" height="220" as="geometry" />
        </mxCell>
        <mxCell id="t-eY9mWXdGbSjKcz9sFD-10" value="03\PROD" style="text;html=1;strokeColor=none;fillColor=none;align=center;verticalAlign=middle;whiteSpace=wrap;rounded=0;fontStyle=1" vertex="1" parent="1">
          <mxGeometry x="260" y="590" width="60" height="30" as="geometry" />
        </mxCell>
        <mxCell id="t-eY9mWXdGbSjKcz9sFD-11" value="Local_Reference" style="shape=cylinder3;whiteSpace=wrap;html=1;boundedLbl=1;backgroundOutline=1;size=15;" vertex="1" parent="1">
          <mxGeometry x="282.5" y="510" width="100" height="60" as="geometry" />
        </mxCell>
        <mxCell id="t-eY9mWXdGbSjKcz9sFD-12" value="SQL Job" style="strokeWidth=2;html=1;shape=mxgraph.flowchart.direct_data;whiteSpace=wrap;" vertex="1" parent="1">
          <mxGeometry x="300" y="410" width="80" height="30" as="geometry" />
        </mxCell>
        <mxCell id="t-eY9mWXdGbSjKcz9sFD-14" value="New/modified Appt types" style="html=1;verticalAlign=bottom;endArrow=block;edgeStyle=elbowEdgeStyle;elbow=vertical;curved=0;rounded=0;exitX=0.59;exitY=0.975;exitDx=0;exitDy=0;exitPerimeter=0;" edge="1" parent="1" source="t-eY9mWXdGbSjKcz9sFD-2">
          <mxGeometry x="-0.3836" y="41" relative="1" as="geometry">
            <mxPoint x="360" y="280" as="sourcePoint" />
            <Array as="points" />
            <mxPoint x="360" y="410" as="targetPoint" />
            <mxPoint as="offset" />
          </mxGeometry>
        </mxCell>
        <mxCell id="t-eY9mWXdGbSjKcz9sFD-15" value="Modified Appts by SLAM team" style="html=1;verticalAlign=bottom;endArrow=block;edgeStyle=elbowEdgeStyle;elbow=vertical;curved=0;rounded=0;" edge="1" parent="1">
          <mxGeometry x="-0.2105" y="60" relative="1" as="geometry">
            <mxPoint x="320" y="410" as="sourcePoint" />
            <Array as="points" />
            <mxPoint x="322" y="260" as="targetPoint" />
            <mxPoint as="offset" />
          </mxGeometry>
        </mxCell>
        <mxCell id="t-eY9mWXdGbSjKcz9sFD-17" value="" style="endArrow=classic;startArrow=classic;html=1;rounded=0;exitX=0.5;exitY=0;exitDx=0;exitDy=0;exitPerimeter=0;entryX=0.325;entryY=0.98;entryDx=0;entryDy=0;entryPerimeter=0;" edge="1" parent="1" source="t-eY9mWXdGbSjKcz9sFD-11" target="t-eY9mWXdGbSjKcz9sFD-12">
          <mxGeometry width="50" height="50" relative="1" as="geometry">
            <mxPoint x="290" y="510" as="sourcePoint" />
            <mxPoint x="340" y="460" as="targetPoint" />
          </mxGeometry>
        </mxCell>
        <mxCell id="t-eY9mWXdGbSjKcz9sFD-18" value="based on UPDATE_DATE_TIME" style="text;html=1;strokeColor=none;fillColor=none;align=center;verticalAlign=middle;whiteSpace=wrap;rounded=0;" vertex="1" parent="1">
          <mxGeometry x="296" y="460" width="73" height="30" as="geometry" />
        </mxCell>
      </root>
    </mxGraphModel>
  </diagram>
</mxfile>
